<svg xmlns="http://www.w3.org/2000/svg" viewBox="0 0 512 512">
  <rect width="512" height="512" rx="112" fill="#f43f5e"/>
  <path fill="#ffffff" d="M256 420c-6 0-12-2-17-6-54-39-92-70-118-96-28-29-41-55-41-84 0-42 34-76 76-76 27 0 52 14 66 36 14-22 39-36 66-36 42 0 76 34 76 76 0 29-13 55-41 84-26 26-64 57-118 96-5 4-11 6-17 6zm-100-244c-25 0-46 21-46 46 0 20 10 40 32 62 23 24 58 53 114 94 56-41 91-70 114-94 22-22 32-42 32-62 0-25-21-46-46-46-22 0-42 15-48 36-3 10-12 16-22 16s-19-6-22-16c-6-21-26-36-48-36z"/>
</svg>
